<?xml version="1.0" encoding="iso-8859-1" standalone="no"?> 
<?xml-stylesheet href="digInComplexNumbersVec.css" type="text/css"?> 
<svg xmlns="http://www.w3.org/2000/svg" xmlns:xlink="http://www.w3.org/1999/xlink" width="219.61368pt" height="217.69518pt" viewBox="-2.65633 -0.2 219.61368 217.69518 "> 
<g transform="translate(0, 217.49518 ) scale(1,-1) translate(0,0.2 )"> 
 <g>
 <g stroke="rgb(0.0%,0.0%,0.0%)">
 <g fill="rgb(0.0%,0.0%,0.0%)">
 <g stroke-width="0.4pt">
 <g>
 </g>
 <g>
 <g>
 <g>
 <g>
 <g stroke-width="0.2pt">
 <g stroke="rgb(50.0%,50.0%,50.0%)">
 <g fill="rgb(50.0%,50.0%,50.0%)">
 <path d=" M  9.28772 100.0312 L  9.28772 104.29861 M  195.04211 100.0312 L  195.04211 104.29861  " style="fill:none"/>
 </g>
 </g>
 </g>
 </g>
 </g>
 <g>
 <g>
 <g stroke-width="0.2pt">
 <g stroke="rgb(50.0%,50.0%,50.0%)">
 <g fill="rgb(50.0%,50.0%,50.0%)">
 <path d=" M  100.0312 9.28772 L  104.29861 9.28772 M  100.0312 195.04211 L  104.29861 195.04211  " style="fill:none"/>
 </g>
 </g>
 </g>
 </g>
 </g>
 <path d=" M  0.0 102.16492 L  202.32986 102.16492  " style="fill:none"/>
 <g>
 <g transform="matrix(1.0,0.0,0.0,1.0,202.32986,102.16492)">
 <g>
 <path d=" M  1.99997 0.0 L  -1.19998 1.59998 L  0.0 0.0 L  -1.19998 -1.59998  " style="stroke:none"/>
 </g>
  </g>
 </g>
 <path d=" M  102.16492 0.0 L  102.16492 202.32986  " style="fill:none"/>
 <g>
 <g transform="matrix(0.0,1.0,-1.0,0.0,102.16492,202.32986)">
 <g>
 <path d=" M  1.99997 0.0 L  -1.19998 1.59998 L  0.0 0.0 L  -1.19998 -1.59998  " style="stroke:none"/>
 </g>
  </g>
 </g>
 <g>
 <g>
 <g transform="matrix(1.0,0.0,0.0,1.0,0.67665,90.05379)">
 <g fill="rgb(0.0%,0.0%,0.0%)">
 <text style="stroke:none" transform="scale(1,-1) translate(8.61107,0)" text-anchor="middle"  font-size="10"> 
 − 1</text> 
</g>
 </g>
 </g>
 </g>
 <g>
 <g>
 <g transform="matrix(1.0,0.0,0.0,1.0,192.54211,90.0538)">
 <g fill="rgb(0.0%,0.0%,0.0%)">
 <text style="stroke:none" transform="scale(1,-1) translate(2.5,0)" text-anchor="middle"  font-size="10"> 
1</text> 
</g>
 </g>
 </g>
 </g>
 <g>
 <g>
 <g transform="matrix(1.0,0.0,0.0,1.0,79.2761,6.48216)">
 <g fill="rgb(0.0%,0.0%,0.0%)">
 <text style="stroke:none" transform="scale(1,-1) translate(8.61107,0)" text-anchor="middle"  font-size="10"> 
 − 1</text> 
</g>
 </g>
 </g>
 </g>
 <g>
 <g>
 <g transform="matrix(1.0,0.0,0.0,1.0,91.49823,191.8199)">
 <g fill="rgb(0.0%,0.0%,0.0%)">
 <text style="stroke:none" transform="scale(1,-1) translate(2.5,0)" text-anchor="middle"  font-size="10"> 
1</text> 
</g>
 </g>
 </g>
 </g>
 <g>
 <g stroke="rgb(0.0%,0.0%,0.0%)">
 <g fill="rgb(0.0%,0.0%,0.0%)">
 <path d=" M  102.16492 102.16492 L  102.16492 195.04211  " style="fill:none"/>
 </g>
 </g>
 </g>
 <g>
 <g stroke-width="1.6pt">
 <g stroke="rgb(50.0%,0.0%,0.0%)">
 <g fill="rgb(50.0%,0.0%,0.0%)">
 <path d=" M  102.16492 102.16492 L  102.16492 195.04211  " style="fill:none"/>
 </g>
 </g>
 </g>
 </g>
 <g>
 <g stroke="rgb(0.0%,0.0%,0.0%)">
 <g fill="rgb(0.0%,0.0%,0.0%)">
 <path d=" M  116.0965 102.16492 C  116.0965 102.16492 116.08272 102.82378 116.06612 103.07603 C  116.04951 103.3283 116.0098 103.73247 115.97682 103.98311 C  115.94385 104.23375 115.87769 104.63454 115.82845 104.88255 C  115.7792 105.13057 115.68729 105.52643 115.62184 105.77068 C  115.5564 106.01492 115.43808 106.40356 115.35674 106.64294 C  115.27539 106.88232 115.13222 107.26242 115.03546 107.49597 C  114.9387 107.72952 114.77106 108.09947 114.65932 108.32628 C  114.54758 108.55309 114.35648 108.91174 114.23007 109.1307 C  114.10367 109.34967 113.88872 109.6943 113.74818 109.90446 C  113.60765 110.11462 113.37103 110.44485 113.2171 110.64548 C  113.06317 110.8461 112.80531 111.16028 112.63866 111.35042 C  112.472 111.54056 112.19466 111.8372 112.01593 112.01593 C  111.8372 112.19466 111.54056 112.472 111.35042 112.63866 C  111.16028 112.80531 110.8461 113.06317 110.64548 113.2171 C  110.44485 113.37103 110.11462 113.60765 109.90446 113.74818 C  109.6943 113.88872 109.34967 114.10367 109.1307 114.23007 C  108.91174 114.35648 108.55309 114.54758 108.32628 114.65932 C  108.09947 114.77106 107.72952 114.9387 107.49597 115.03546 C  107.26242 115.13222 106.88232 115.27539 106.64294 115.35674 C  106.40356 115.43808 106.01492 115.5564 105.77068 115.62184 C  105.52643 115.68729 105.13057 115.7792 104.88255 115.82845 C  104.63454 115.87769 104.23375 115.94385 103.98311 115.97682 C  103.73247 116.0098 103.3283 116.04951 103.07603 116.06612 C  102.82378 116.08272 102.16492 116.0965 102.16492 116.0965  " style="fill:none"/>
 </g>
 </g>
 </g>
 <g>
 <g>
 <g transform="matrix(1.0,0.0,0.0,1.0,115.91438,108.9092)">
 <g fill="rgb(0.0%,0.0%,0.0%)">
 <text style="stroke:none" transform="scale(1,-1) translate(2.48611,0)" text-anchor="middle"  font-size="10"> 
𝜃</text> 
</g>
 </g>
 </g>
 </g>
 <g>
 <g>
 <g transform="matrix(1.0,0.0,0.0,1.0,108.02495,192.7167)">
 <g fill="rgb(0.0%,0.0%,0.0%)">
 <text style="stroke:none" transform="scale(1,-1) translate(11.557,0)" text-anchor="middle"  font-size="10"> 
z =j</text> 
</g>
 </g>
 </g>
 </g>
 </g>
 <g>
 <g>
 <g transform="matrix(1.0,0.0,0.0,1.0,207.9091,100.0353)">
 <g fill="rgb(0.0%,0.0%,0.0%)">
 <text style="stroke:none" transform="scale(1,-1) translate(2.85764,0)" text-anchor="middle"  font-size="10"> 
x</text> 
</g>
 </g>
 </g>
 </g>
 <g>
 <g>
 <g transform="matrix(1.0,0.0,0.0,1.0,99.55882,209.85666)">
 <g fill="rgb(0.0%,0.0%,0.0%)">
 <text style="stroke:none" transform="scale(1,-1) translate(2.6308,0)" text-anchor="middle"  font-size="10"> 
y</text> 
</g>
 </g>
 </g>
 </g>
 </g>
 </g>
 </g>
 </g>
 </g>
                                                  </g> 
</svg> 
