<?xml version="1.0" encoding="iso-8859-1" standalone="no"?> 
<?xml-stylesheet href="digInComplexNumbersEuler.css" type="text/css"?> 
<svg xmlns="http://www.w3.org/2000/svg" xmlns:xlink="http://www.w3.org/1999/xlink" width="219.61368pt" height="217.69518pt" viewBox="-2.65633 -0.2 219.61368 217.69518 "> 
<g transform="translate(0, 217.49518 ) scale(1,-1) translate(0,0.2 )"> 
 <g>
 <g stroke="rgb(0.0%,0.0%,0.0%)">
 <g fill="rgb(0.0%,0.0%,0.0%)">
 <g stroke-width="0.4pt">
 <g>
 </g>
 <g>
 <g>
 <g>
 <g>
 <g stroke-width="0.2pt">
 <g stroke="rgb(50.0%,50.0%,50.0%)">
 <g fill="rgb(50.0%,50.0%,50.0%)">
 <path d=" M  9.28772 100.0312 L  9.28772 104.29861 M  195.04211 100.0312 L  195.04211 104.29861  " style="fill:none"/>
 </g>
 </g>
 </g>
 </g>
 </g>
 <g>
 <g>
 <g stroke-width="0.2pt">
 <g stroke="rgb(50.0%,50.0%,50.0%)">
 <g fill="rgb(50.0%,50.0%,50.0%)">
 <path d=" M  100.0312 9.28772 L  104.29861 9.28772 M  100.0312 195.04211 L  104.29861 195.04211  " style="fill:none"/>
 </g>
 </g>
 </g>
 </g>
 </g>
 <path d=" M  0.0 102.16492 L  202.32986 102.16492  " style="fill:none"/>
 <g>
 <g transform="matrix(1.0,0.0,0.0,1.0,202.32986,102.16492)">
 <g>
 <path d=" M  1.99997 0.0 L  -1.19998 1.59998 L  0.0 0.0 L  -1.19998 -1.59998  " style="stroke:none"/>
 </g>
  </g>
 </g>
 <path d=" M  102.16492 0.0 L  102.16492 202.32986  " style="fill:none"/>
 <g>
 <g transform="matrix(0.0,1.0,-1.0,0.0,102.16492,202.32986)">
 <g>
 <path d=" M  1.99997 0.0 L  -1.19998 1.59998 L  0.0 0.0 L  -1.19998 -1.59998  " style="stroke:none"/>
 </g>
  </g>
 </g>
 <g>
 <g>
 <g transform="matrix(1.0,0.0,0.0,1.0,0.67665,90.05379)">
 <g fill="rgb(0.0%,0.0%,0.0%)">
 <text style="stroke:none" transform="scale(1,-1) translate(8.61107,0)" text-anchor="middle"  font-size="10"> 
 − 1</text> 
</g>
 </g>
 </g>
 </g>
 <g>
 <g>
 <g transform="matrix(1.0,0.0,0.0,1.0,192.54211,90.0538)">
 <g fill="rgb(0.0%,0.0%,0.0%)">
 <text style="stroke:none" transform="scale(1,-1) translate(2.5,0)" text-anchor="middle"  font-size="10"> 
1</text> 
</g>
 </g>
 </g>
 </g>
 <g>
 <g>
 <g transform="matrix(1.0,0.0,0.0,1.0,79.2761,6.48216)">
 <g fill="rgb(0.0%,0.0%,0.0%)">
 <text style="stroke:none" transform="scale(1,-1) translate(8.61107,0)" text-anchor="middle"  font-size="10"> 
 − 1</text> 
</g>
 </g>
 </g>
 </g>
 <g>
 <g>
 <g transform="matrix(1.0,0.0,0.0,1.0,91.49823,191.8199)">
 <g fill="rgb(0.0%,0.0%,0.0%)">
 <text style="stroke:none" transform="scale(1,-1) translate(2.5,0)" text-anchor="middle"  font-size="10"> 
1</text> 
</g>
 </g>
 </g>
 </g>
 <g>
 <g stroke-dasharray="3.0pt,3.0pt" stroke-dashoffset="0.0pt">
 <path d=" M  195.04211 102.16492 C  195.04211 102.16492 193.60419 119.76012 191.87778 126.20338 C  190.15137 132.64665 185.93477 142.82674 182.59935 148.60352 C  179.26393 154.3803 172.55524 163.12152 167.83838 167.83838 C  163.12152 172.55524 154.3803 179.26393 148.60352 182.59935 C  142.82674 185.93477 132.64665 190.15137 126.20338 191.87778 C  119.76012 193.60419 108.8355 195.04211 102.16492 195.04211 C  95.49434 195.04211 84.5697 193.60419 78.12643 191.87778 C  71.68317 190.15137 61.5031 185.93477 55.72632 182.59935 C  49.94954 179.26393 41.2083 172.55524 36.49144 167.83838 C  31.77458 163.12152 25.06589 154.3803 21.73047 148.60352 C  18.39505 142.82674 14.17844 132.64665 12.45204 126.20338 C  10.72565 119.76012 9.28772 108.8355 9.28772 102.16492 C  9.28772 95.49434 10.72565 84.5697 12.45204 78.12643 C  14.17844 71.68317 18.39505 61.5031 21.73047 55.72632 C  25.06589 49.94954 31.77458 41.2083 36.49144 36.49144 C  41.2083 31.77458 49.94954 25.06589 55.72632 21.73047 C  61.5031 18.39505 71.68317 14.17844 78.12643 12.45204 C  84.5697 10.72565 95.49434 9.28772 102.16492 9.28772 C  108.8355 9.28772 119.76012 10.72565 126.20338 12.45204 C  132.64665 14.17844 142.82674 18.39505 148.60352 21.73047 C  154.3803 25.06589 163.12152 31.77458 167.83838 36.49144 C  172.55524 41.2083 179.26393 49.94954 182.59935 55.72632 C  185.93477 61.5031 190.15137 71.68317 191.87778 78.12643 C  193.60419 84.5697 195.04211 102.16492 195.04211 102.16492  " style="fill:none"/>
 </g>
 </g>
 <g>
 <g stroke="rgb(0.0%,0.0%,0.0%)">
 <g fill="rgb(0.0%,0.0%,0.0%)">
 <path d=" M  102.16492 102.16492 L  173.30885 161.88495  " style="fill:none"/>
 </g>
 </g>
 </g>
 <g>
 <g stroke-width="1.6pt">
 <g stroke="rgb(0.0%,0.0%,50.0%)">
 <g fill="rgb(0.0%,0.0%,50.0%)">
 <path d=" M  173.30885 102.16492 L  173.30885 161.88495  " style="fill:none"/>
 </g>
 </g>
 </g>
 </g>
 <g>
 <g stroke-width="1.6pt">
 <g stroke="rgb(50.0%,0.0%,0.0%)">
 <g fill="rgb(50.0%,0.0%,0.0%)">
 <path d=" M  102.16492 102.16492 L  173.30885 102.16492  " style="fill:none"/>
 </g>
 </g>
 </g>
 </g>
 <g>
 <g stroke="rgb(0.0%,0.0%,0.0%)">
 <g fill="rgb(0.0%,0.0%,0.0%)">
 <path d=" M  116.0965 102.16492 C  116.0965 102.16492 116.0933 102.45757 116.08994 102.5699 C  116.08656 102.68224 116.0786 102.86237 116.07211 102.97461 C  116.06563 103.08685 116.05289 103.26689 116.04314 103.3789 C  116.03339 103.49092 116.01483 103.67029 116.00175 103.78194 C  115.98868 103.89359 115.96506 104.07236 115.94882 104.18361 C  115.93259 104.29486 115.90425 104.47308 115.88474 104.58385 C  115.86522 104.69461 115.83093 104.87193 115.8081 104.98201 C  115.78528 105.09209 115.74608 105.26788 115.7202 105.37724 C  115.69432 105.4866 115.65065 105.66165 115.62155 105.77026 C  115.59245 105.87888 115.54268 106.05237 115.51039 106.16006 C  115.4781 106.26776 115.42403 106.43979 115.38876 106.54654 C  115.3535 106.65329 115.29459 106.82387 115.25613 106.92952 C  115.21768 107.03517 115.15309 107.20358 115.11153 107.30803 C  115.06996 107.41248 115.00092 107.5791 114.95647 107.68237 C  114.91202 107.78564 114.8386 107.9505 114.79109 108.0524 C  114.74359 108.1543 114.66454 108.3164 114.61403 108.41684 C  114.56352 108.51727 114.48036 108.67728 114.42706 108.77628 C  114.37376 108.87527 114.28604 109.03302 114.2298 109.13042 C  114.17355 109.22781 114.08076 109.38261 114.02167 109.47829 C  113.96257 109.57396 113.8655 109.72609 113.80377 109.82004 C  113.74205 109.91399 113.64127 110.06343 113.57681 110.1555 C  113.51236 110.24757 113.40637 110.39357 113.33916 110.48373 C  113.27194 110.5739 113.16199 110.7172 113.09229 110.8054 C  113.02258 110.89362 112.83678 111.11957 112.83678 111.11957  " style="fill:none"/>
 </g>
 </g>
 </g>
 <g>
 <g>
 <g transform="matrix(1.0,0.0,0.0,1.0,119.62947,105.1941)">
 <g fill="rgb(0.0%,0.0%,0.0%)">
 <text style="stroke:none" transform="scale(1,-1) translate(2.48611,0)" text-anchor="middle"  font-size="10"> 
𝜃</text> 
</g>
 </g>
 </g>
 </g>
 <g>
 <g stroke="rgb(0.0%,0.0%,50.0%)">
 <g fill="rgb(0.0%,0.0%,50.0%)">
 <g>
 <g stroke="rgb(0.0%,0.0%,50.0%)">
 <g fill="rgb(0.0%,0.0%,50.0%)">
 </g>
 </g>
 </g>
 <g>
 <g transform="matrix(0.0,-1.0,1.0,0.0,177.68176,145.4186)">
 <g fill="rgb(0.0%,0.0%,50.0%)">
 <text style="stroke:none" transform="scale(1,-1) translate(13.34723,0)" text-anchor="middle"  font-size="10"> 
 sin (𝜃)</text> 
</g>
 </g>
 </g>
 </g>
 </g>
 </g>
 <g>
 <g stroke="rgb(50.0%,0.0%,0.0%)">
 <g fill="rgb(50.0%,0.0%,0.0%)">
 <g>
 <g stroke="rgb(50.0%,0.0%,0.0%)">
 <g fill="rgb(50.0%,0.0%,0.0%)">
 </g>
 </g>
 </g>
 <g>
 <g transform="matrix(1.0,0.0,0.0,1.0,123.8341,91.13194)">
 <g fill="rgb(50.0%,0.0%,0.0%)">
 <text style="stroke:none" transform="scale(1,-1) translate(13.90277,0)" text-anchor="middle"  font-size="10"> 
 cos (𝜃)</text> 
</g>
 </g>
 </g>
 </g>
 </g>
 </g>
 </g>
 <g>
 <g>
 <g transform="matrix(1.0,0.0,0.0,1.0,207.9091,100.0353)">
 <g fill="rgb(0.0%,0.0%,0.0%)">
 <text style="stroke:none" transform="scale(1,-1) translate(2.85764,0)" text-anchor="middle"  font-size="10"> 
x</text> 
</g>
 </g>
 </g>
 </g>
 <g>
 <g>
 <g transform="matrix(1.0,0.0,0.0,1.0,99.55882,209.85666)">
 <g fill="rgb(0.0%,0.0%,0.0%)">
 <text style="stroke:none" transform="scale(1,-1) translate(2.6308,0)" text-anchor="middle"  font-size="10"> 
y</text> 
</g>
 </g>
 </g>
 </g>
 </g>
 </g>
 </g>
 </g>
 </g>
                                                 </g> 
</svg> 
